<svg width="21" height="21" viewBox="0 0 21 21" fill="none" xmlns="http://www.w3.org/2000/svg">
<path d="M12.7626 0.512563C13.446 -0.170854 14.554 -0.170854 15.2374 0.512563L20.4874 5.76256C21.1708 6.446 21.1709 7.55402 20.4874 8.23746L15.2374 13.4875C14.554 14.1709 13.446 14.1709 12.7626 13.4875C12.0791 12.804 12.0791 11.696 12.7626 11.0126L15.0251 8.74996H7.875C5.45874 8.75002 3.49996 10.7088 3.49996 13.125C3.49998 15.5413 5.45879 17.5 7.875 17.5H10.5C11.4665 17.5 12.25 18.2835 12.25 19.25C12.25 20.2165 11.4665 21 10.5 21H7.875C3.52577 21 2.01888e-05 17.4743 0 13.125C0 8.77579 3.52576 5.25005 7.875 5.25H15.0251L12.7626 2.98744C12.0791 2.30403 12.0791 1.19598 12.7626 0.512563Z" fill="#3A061C"/>
</svg>
