<svg width="30" height="35" viewBox="0 0 30 35" fill="none" xmlns="http://www.w3.org/2000/svg">
<path d="M15.8426 0.631496C16.8942 1.41961 17.7785 2.41294 18.4431 3.55246L18.4746 3.60681L18.4753 3.60797L18.476 3.60914C19.4371 5.28827 19.8877 7.20414 19.7898 9.12036C21.3807 8.07974 23.2446 7.51863 25.1605 7.52155V7.5215C25.1612 7.5215 25.162 7.52155 25.1628 7.52155C25.1632 7.52155 25.1637 7.5215 25.1641 7.5215L25.1641 7.52155C26.4864 7.52105 27.7956 7.78829 29.0141 8.3075L30 8.72759L29.8686 9.80068C29.7052 11.1345 29.2841 12.4229 28.6294 13.5928L28.6232 13.6036C27.665 15.2812 26.2496 16.6304 24.5605 17.5C26.2164 18.3526 27.6092 19.6659 28.5662 21.2978L28.6232 21.3963L28.6294 21.4072C29.2841 22.577 29.7052 23.8654 29.8686 25.1993L30 26.2722L29.0144 26.6924C27.6058 27.2929 26.0785 27.5551 24.5528 27.4584C23.027 27.3616 21.5441 26.9086 20.2208 26.1348C20.0745 26.0493 19.9306 25.9602 19.7892 25.8674C19.8896 27.7877 19.4391 29.7081 18.476 31.3909L18.4753 31.3921L18.4746 31.3932C17.8065 32.5555 16.9109 33.5679 15.8426 34.3685L15 35L14.1574 34.3685C13.0891 33.5679 12.1935 32.5555 11.5254 31.3932L11.5247 31.3921L11.524 31.3909C10.5609 29.7081 10.1103 27.7877 10.2107 25.8674C10.0694 25.9601 9.9255 26.0493 9.77922 26.1348C8.45588 26.9086 6.97303 27.3616 5.44722 27.4584C3.92145 27.5551 2.39422 27.2929 0.985584 26.6924L4.47524e-05 26.2722L0.131491 25.1993C0.294888 23.8654 0.715936 22.577 1.37064 21.4072L1.37366 21.4018L1.37677 21.3963C2.33805 19.7133 3.75943 18.3609 5.4558 17.4915C3.76316 16.6274 2.34298 15.2825 1.37908 13.6077L1.37481 13.6002L1.37064 13.5928C0.715892 12.4229 0.294888 11.1345 0.131491 9.80068L0 8.72759L0.985851 8.3075C2.2042 7.78838 3.51311 7.52114 4.83531 7.52155C4.83594 7.52155 4.83656 7.52155 4.83722 7.52155C4.83802 7.52155 4.83882 7.5215 4.83958 7.5215L4.83953 7.52155C6.75498 7.51791 8.61882 8.07808 10.2101 9.11785C10.1127 7.20247 10.5633 5.28755 11.524 3.60914L11.5247 3.60797L11.5254 3.60681C12.1935 2.44451 13.0891 1.43214 14.1574 0.631496L15 0L15.8426 0.631496ZM15 21.4519C14.0774 22.4188 13.4386 23.636 13.1691 24.9672C12.8236 26.6742 13.1095 28.45 13.9726 29.9583C14.2591 30.4564 14.6045 30.9156 15 31.3265C15.3955 30.9156 15.7409 30.4564 16.0274 29.9583C16.8905 28.45 17.1764 26.6742 16.8309 24.9672C16.5615 23.636 15.9226 22.4188 15 21.4519ZM11.6039 19.4824C10.3199 19.1609 8.96385 19.2103 7.69412 19.6375C6.06415 20.1859 4.68938 21.3187 3.82947 22.8217C3.54733 23.327 3.32563 23.863 3.16797 24.4182C3.85342 24.5858 4.56198 24.6493 5.27014 24.6044C6.35935 24.5353 7.41786 24.212 8.36255 23.6597C9.30722 23.1073 10.1123 22.3411 10.7145 21.4212C11.1068 20.8219 11.406 20.168 11.6039 19.4824ZM22.3059 19.6375C21.0362 19.2103 19.6801 19.1609 18.396 19.4824C18.5939 20.168 18.8932 20.8219 19.2855 21.4212C19.8878 22.3411 20.6928 23.1073 21.6375 23.6597C22.5821 24.212 23.6407 24.5353 24.7299 24.6044C25.438 24.6493 26.1465 24.5858 26.832 24.4182C26.6742 23.8624 26.4522 23.326 26.1696 22.8202C25.3097 21.3179 23.9353 20.1857 22.3059 19.6375ZM15 17.2351L14.7359 17.0352L14.7716 17.3263L14.4081 17.4843L14.7714 17.6416L14.7316 17.968L15 17.7649L15.2684 17.968L15.2286 17.6416L15.5558 17.5L15.2318 17.3597L15.271 17.03L15 17.2351ZM25.1588 10.3811C23.4377 10.3778 21.7751 11.0129 20.4865 12.1661C19.4823 13.0647 18.7596 14.2291 18.3922 15.5166C19.6774 15.8392 21.0349 15.7901 22.3059 15.3624C23.9353 14.8142 25.3097 13.682 26.1696 12.1797C26.4522 11.674 26.6741 11.1375 26.8319 10.5818C26.2866 10.4484 25.7262 10.3807 25.1624 10.3811H25.1588ZM4.83758 10.3811C4.27375 10.3807 3.71335 10.4484 3.16801 10.5818C3.32563 11.1369 3.54724 11.6728 3.82933 12.178C4.69329 13.6748 6.06882 14.8008 7.69711 15.3441C8.9667 15.7676 10.3215 15.8139 11.6038 15.4902C11.2327 14.2085 10.5092 13.0503 9.50678 12.1568C8.21867 11.0087 6.55923 10.3771 4.8418 10.3811H4.83758ZM15 3.67341C14.6046 4.0842 14.2594 4.54323 13.9729 5.04106C13.1096 6.54946 12.8236 8.32556 13.1691 10.0328C13.4386 11.364 14.0774 12.5812 15 13.5481C15.9226 12.5812 16.5615 11.364 16.8309 10.0328C17.1764 8.32556 16.8904 6.54946 16.0271 5.04106H16.027C15.7406 4.54323 15.3954 4.0842 15 3.67341Z" fill="#3A061C"/>
</svg>
