<svg xmlns="http://www.w3.org/2000/svg" version="1.1" xmlns:xlink="http://www.w3.org/1999/xlink" width="495" height="495"><svg width="495" height="495" viewBox="0 0 495 495" fill="none" xmlns="http://www.w3.org/2000/svg">
<path d="M257.92 51.3434C270.925 60.508 281.86 72.059 290.08 85.31L290.47 85.942L290.478 85.9556L290.486 85.9692C302.372 105.495 307.944 127.774 306.734 150.057C326.408 137.956 349.458 131.431 373.151 131.465V131.464C373.16 131.464 373.17 131.465 373.18 131.465C373.185 131.465 373.191 131.464 373.196 131.464L373.196 131.465C389.549 131.459 405.739 134.567 420.808 140.604L433 145.489L431.374 157.968C429.354 173.478 424.147 188.461 416.05 202.064L415.974 202.191C404.124 221.699 386.62 237.387 365.731 247.501C386.209 257.415 403.434 272.686 415.268 291.663L415.974 292.809L416.05 292.935C424.147 306.539 429.354 321.521 431.374 337.032L432.999 349.508L420.812 354.394C403.392 361.378 384.505 364.426 365.636 363.302C346.767 362.177 328.429 356.908 312.063 347.911C310.255 346.916 308.475 345.88 306.726 344.801C307.968 367.132 302.397 389.463 290.486 409.031L290.478 409.045L290.47 409.058C282.207 422.574 271.132 434.347 257.92 443.657L247.5 451L237.08 443.657C223.869 434.347 212.793 422.574 204.53 409.058L204.522 409.045L204.514 409.031C192.603 389.463 187.031 367.131 188.273 344.801C186.525 345.879 184.745 346.916 182.936 347.911C166.571 356.908 148.233 362.177 129.364 363.302C110.495 364.426 91.6085 361.378 74.1884 354.394L62.0006 349.508L63.6261 337.032C65.6468 321.521 70.8537 306.538 78.9502 292.935L78.9876 292.872L79.026 292.809C90.9138 273.238 108.492 257.511 129.47 247.401C108.538 237.352 90.9748 221.714 79.0546 202.238L79.0019 202.151L78.9502 202.064C70.8532 188.461 65.6468 173.479 63.6261 157.968L62 145.489L74.1917 140.604C89.2586 134.568 105.445 131.46 121.797 131.465C121.804 131.465 121.812 131.465 121.82 131.465C121.83 131.465 121.84 131.464 121.849 131.464L121.849 131.465C145.537 131.423 168.586 137.937 188.264 150.028C187.061 127.754 192.633 105.487 204.514 85.9692L204.522 85.9556L204.53 85.942C212.793 72.4262 223.869 60.6537 237.08 51.3434L247.5 44L257.92 51.3434ZM247.5 293.455C236.091 304.698 228.19 318.853 224.858 334.333C220.585 354.183 224.121 374.833 234.794 392.372C238.338 398.164 242.609 403.504 247.5 408.283C252.391 403.504 256.662 398.164 260.205 392.372C270.879 374.833 274.415 354.183 270.142 334.333C266.81 318.853 258.909 304.698 247.5 293.455ZM205.502 270.552C189.623 266.814 172.853 267.389 157.151 272.356C136.993 278.733 119.992 291.906 109.358 309.384C105.869 315.26 103.127 321.492 101.177 327.948C109.654 329.898 118.416 330.636 127.174 330.114C140.644 329.311 153.734 325.551 165.417 319.128C177.099 312.705 187.056 303.795 194.503 293.097C199.355 286.129 203.055 278.525 205.502 270.552ZM337.849 272.356C322.147 267.389 305.377 266.814 289.497 270.552C291.945 278.525 295.646 286.129 300.497 293.097C307.945 303.795 317.901 312.705 329.584 319.128C341.266 325.551 354.357 329.311 367.827 330.114C376.584 330.636 385.346 329.898 393.822 327.948C391.871 321.486 389.126 315.248 385.631 309.366C374.996 291.897 358 278.731 337.849 272.356ZM247.5 244.419L244.234 242.095L244.675 245.48L240.18 247.318L244.673 249.146L244.18 252.943L247.5 250.581L250.819 252.943L250.327 249.146L254.374 247.499L250.366 245.869L250.851 242.034L247.5 244.419ZM373.13 164.717C351.846 164.679 331.286 172.065 315.349 185.474C302.931 195.923 293.993 209.464 289.45 224.436C305.344 228.187 322.131 227.616 337.849 222.643C358 216.268 374.996 203.102 385.631 185.633C389.125 179.752 391.87 173.514 393.822 167.051C387.078 165.5 380.147 164.712 373.175 164.717H373.13ZM121.825 164.717C114.852 164.712 107.922 165.5 101.178 167.051C103.127 173.506 105.868 179.737 109.356 185.613C120.04 203.018 137.051 216.112 157.188 222.43C172.888 227.355 189.643 227.894 205.5 224.129C200.912 209.224 191.964 195.756 179.567 185.366C163.638 172.016 143.116 164.67 121.877 164.717H121.825ZM247.5 86.7166C242.611 91.4934 238.341 96.8312 234.799 102.62C224.122 120.161 220.585 140.814 224.858 160.667C228.19 176.147 236.091 190.302 247.5 201.545C258.909 190.302 266.81 176.147 270.142 160.667C274.415 140.814 270.878 120.161 260.201 102.62H260.201C256.658 96.8312 252.389 91.4934 247.5 86.7166Z" fill="#3A061C"></path>
</svg><style>@media (prefers-color-scheme: light) { :root { filter: none; } }
@media (prefers-color-scheme: dark) { :root { filter: invert(100%); } }
</style></svg>